<svg id="visual" viewBox="0 0 1920 1080" width="1920" height="1080" xmlns="http://www.w3.org/2000/svg" xmlns:xlink="http://www.w3.org/1999/xlink" version="1.1"><rect x="0" y="0" width="1920" height="1080" fill="#001220"></rect><path d="M0 711L45.7 718.5C91.3 726 182.7 741 274.2 756C365.7 771 457.3 786 548.8 788C640.3 790 731.7 779 823 762.2C914.3 745.3 1005.7 722.7 1097 721.3C1188.3 720 1279.7 740 1371.2 736.8C1462.7 733.7 1554.3 707.3 1645.8 691.3C1737.3 675.3 1828.7 669.7 1874.3 666.8L1920 664L1920 1081L1874.3 1081C1828.7 1081 1737.3 1081 1645.8 1081C1554.3 1081 1462.7 1081 1371.2 1081C1279.7 1081 1188.3 1081 1097 1081C1005.7 1081 914.3 1081 823 1081C731.7 1081 640.3 1081 548.8 1081C457.3 1081 365.7 1081 274.2 1081C182.7 1081 91.3 1081 45.7 1081L0 1081Z" fill="#c62fe1"></path><path d="M0 719L45.7 727.5C91.3 736 182.7 753 274.2 774.5C365.7 796 457.3 822 548.8 813.2C640.3 804.3 731.7 760.7 823 758C914.3 755.3 1005.7 793.7 1097 803.7C1188.3 813.7 1279.7 795.3 1371.2 800.2C1462.7 805 1554.3 833 1645.8 826.7C1737.3 820.3 1828.7 779.7 1874.3 759.3L1920 739L1920 1081L1874.3 1081C1828.7 1081 1737.3 1081 1645.8 1081C1554.3 1081 1462.7 1081 1371.2 1081C1279.7 1081 1188.3 1081 1097 1081C1005.7 1081 914.3 1081 823 1081C731.7 1081 640.3 1081 548.8 1081C457.3 1081 365.7 1081 274.2 1081C182.7 1081 91.3 1081 45.7 1081L0 1081Z" fill="#a037d9"></path><path d="M0 801L45.7 814.5C91.3 828 182.7 855 274.2 859.7C365.7 864.3 457.3 846.7 548.8 838.3C640.3 830 731.7 831 823 826.3C914.3 821.7 1005.7 811.3 1097 820.5C1188.3 829.7 1279.7 858.3 1371.2 873.2C1462.7 888 1554.3 889 1645.8 888.8C1737.3 888.7 1828.7 887.3 1874.3 886.7L1920 886L1920 1081L1874.3 1081C1828.7 1081 1737.3 1081 1645.8 1081C1554.3 1081 1462.7 1081 1371.2 1081C1279.7 1081 1188.3 1081 1097 1081C1005.7 1081 914.3 1081 823 1081C731.7 1081 640.3 1081 548.8 1081C457.3 1081 365.7 1081 274.2 1081C182.7 1081 91.3 1081 45.7 1081L0 1081Z" fill="#7a3acf"></path><path d="M0 902L45.7 909C91.3 916 182.7 930 274.2 935.5C365.7 941 457.3 938 548.8 941.2C640.3 944.3 731.7 953.7 823 945C914.3 936.3 1005.7 909.7 1097 894.3C1188.3 879 1279.7 875 1371.2 880.3C1462.7 885.7 1554.3 900.3 1645.8 911.5C1737.3 922.7 1828.7 930.3 1874.3 934.2L1920 938L1920 1081L1874.3 1081C1828.7 1081 1737.3 1081 1645.8 1081C1554.3 1081 1462.7 1081 1371.2 1081C1279.7 1081 1188.3 1081 1097 1081C1005.7 1081 914.3 1081 823 1081C731.7 1081 640.3 1081 548.8 1081C457.3 1081 365.7 1081 274.2 1081C182.7 1081 91.3 1081 45.7 1081L0 1081Z" fill="#513ac3"></path><path d="M0 961L45.7 964.3C91.3 967.7 182.7 974.3 274.2 972.3C365.7 970.3 457.3 959.7 548.8 957.2C640.3 954.7 731.7 960.3 823 967.2C914.3 974 1005.7 982 1097 988C1188.3 994 1279.7 998 1371.2 993.3C1462.7 988.7 1554.3 975.3 1645.8 976.3C1737.3 977.3 1828.7 992.7 1874.3 1000.3L1920 1008L1920 1081L1874.3 1081C1828.7 1081 1737.3 1081 1645.8 1081C1554.3 1081 1462.7 1081 1371.2 1081C1279.7 1081 1188.3 1081 1097 1081C1005.7 1081 914.3 1081 823 1081C731.7 1081 640.3 1081 548.8 1081C457.3 1081 365.7 1081 274.2 1081C182.7 1081 91.3 1081 45.7 1081L0 1081Z" fill="#1738b4"></path></svg>