<svg id="visual" viewBox="0 0 1920 1080" width="1920" height="1080" xmlns="http://www.w3.org/2000/svg" xmlns:xlink="http://www.w3.org/1999/xlink" version="1.1"><rect x="0" y="0" width="1920" height="1080" fill="#001220"></rect><path d="M655 0L641.7 25.7C628.3 51.3 601.7 102.7 574.8 154.2C548 205.7 521 257.3 517.5 308.8C514 360.3 534 411.7 564.2 463C594.3 514.3 634.7 565.7 636.8 617C639 668.3 603 719.7 608.5 771.2C614 822.7 661 874.3 689.5 925.8C718 977.3 728 1028.7 733 1054.3L738 1080L0 1080L0 1054.3C0 1028.7 0 977.3 0 925.8C0 874.3 0 822.7 0 771.2C0 719.7 0 668.3 0 617C0 565.7 0 514.3 0 463C0 411.7 0 360.3 0 308.8C0 257.3 0 205.7 0 154.2C0 102.7 0 51.3 0 25.7L0 0Z" fill="#c62fe1"></path><path d="M641 0L625.8 25.7C610.7 51.3 580.3 102.7 542.2 154.2C504 205.7 458 257.3 473.8 308.8C489.7 360.3 567.3 411.7 572.2 463C577 514.3 509 565.7 491.2 617C473.3 668.3 505.7 719.7 497 771.2C488.3 822.7 438.7 874.3 449.8 925.8C461 977.3 533 1028.7 569 1054.3L605 1080L0 1080L0 1054.3C0 1028.7 0 977.3 0 925.8C0 874.3 0 822.7 0 771.2C0 719.7 0 668.3 0 617C0 565.7 0 514.3 0 463C0 411.7 0 360.3 0 308.8C0 257.3 0 205.7 0 154.2C0 102.7 0 51.3 0 25.7L0 0Z" fill="#a037d9"></path><path d="M495 0L471 25.7C447 51.3 399 102.7 390.7 154.2C382.3 205.7 413.7 257.3 428.5 308.8C443.3 360.3 441.7 411.7 449.8 463C458 514.3 476 565.7 459.7 617C443.3 668.3 392.7 719.7 366.5 771.2C340.3 822.7 338.7 874.3 339.2 925.8C339.7 977.3 342.3 1028.7 343.7 1054.3L345 1080L0 1080L0 1054.3C0 1028.7 0 977.3 0 925.8C0 874.3 0 822.7 0 771.2C0 719.7 0 668.3 0 617C0 565.7 0 514.3 0 463C0 411.7 0 360.3 0 308.8C0 257.3 0 205.7 0 154.2C0 102.7 0 51.3 0 25.7L0 0Z" fill="#7a3acf"></path><path d="M316 0L303.3 25.7C290.7 51.3 265.3 102.7 255.5 154.2C245.7 205.7 251.3 257.3 245.8 308.8C240.3 360.3 223.7 411.7 239 463C254.3 514.3 301.7 565.7 329 617C356.3 668.3 363.7 719.7 354.3 771.2C345 822.7 319 874.3 299 925.8C279 977.3 265 1028.7 258 1054.3L251 1080L0 1080L0 1054.3C0 1028.7 0 977.3 0 925.8C0 874.3 0 822.7 0 771.2C0 719.7 0 668.3 0 617C0 565.7 0 514.3 0 463C0 411.7 0 360.3 0 308.8C0 257.3 0 205.7 0 154.2C0 102.7 0 51.3 0 25.7L0 0Z" fill="#513ac3"></path><path d="M212 0L205.8 25.7C199.7 51.3 187.3 102.7 190.8 154.2C194.3 205.7 213.7 257.3 218.3 308.8C223 360.3 213 411.7 200.8 463C188.7 514.3 174.3 565.7 163.7 617C153 668.3 146 719.7 154.2 771.2C162.3 822.7 185.7 874.3 183.7 925.8C181.7 977.3 154.3 1028.7 140.7 1054.3L127 1080L0 1080L0 1054.3C0 1028.7 0 977.3 0 925.8C0 874.3 0 822.7 0 771.2C0 719.7 0 668.3 0 617C0 565.7 0 514.3 0 463C0 411.7 0 360.3 0 308.8C0 257.3 0 205.7 0 154.2C0 102.7 0 51.3 0 25.7L0 0Z" fill="#1738b4"></path></svg>